<?xml version="1.0" encoding="utf-8"?>
<!-- Generator: Adobe Illustrator 24.2.1, SVG Export Plug-In . SVG Version: 6.00 Build 0)  -->
<svg version="1.1" id="Layer_1" xmlns="http://www.w3.org/2000/svg" xmlns:xlink="http://www.w3.org/1999/xlink" x="0px" y="0px"
	 viewBox="0 0 496.8 99.8" style="enable-background:new 0 0 496.8 99.8;" xml:space="preserve">
<style type="text/css">
	.st0{fill:#FFFFFF;}
	.st1{fill:none;stroke:#FFFFFF;stroke-miterlimit:10;}
</style>
<g>
	<polygon class="st0" points="183.1,72.4 165.5,72.4 182.1,85.8 196.5,85.8 199.6,85.8 	"/>
	<g>
		<polygon class="st0" points="199.6,28.5 199.6,66.9 186.7,55.5 186.7,28.5 		"/>
		<g>
			<g>
				<g>
					<path class="st0" d="M127.9,22.2v50.2h-13.8V22.2H127.9z"/>
					<path class="st0" d="M182.9,57.8l-36-29.2h-12.6v43.9h12.9V43.2l36,29.2h12.6h4.1L182.9,57.8z"/>
					<path class="st0" d="M220.3,28.5L220.3,28.5h27.2c4.1,0,7.6,1.4,10.5,4c2.9,2.6,4.3,5.7,4.3,9.5v0.2h-12.6c0-0.2,0-0.2,0-0.2
						c0-0.9-0.2-1.4-0.9-1.9c-0.5-0.5-1.4-0.9-2.1-0.9h-24.3c-0.9,0-1.5,0.3-2.1,0.9c-0.5,0.5-0.9,1-0.9,1.9c0,0.7,0.3,1.4,0.9,1.9
						c0.5,0.5,1.2,0.9,2.1,0.9c2.9,0,7.2,0,13.2,0c6,0,10.3,0,13.2,0c4.1,0,7.7,1.4,10.7,4.1c3.1,2.8,4.5,6,4.5,9.8
						s-1.4,7.1-4.5,9.8c-2.9,2.8-6.5,4-10.7,4h-28.2c-4.1,0-7.7-1.4-10.7-4c-2.9-2.8-4.5-6-4.5-9.8v-0.3h12.2v0.3
						c0,0.9,0.3,1.5,1,2.2c0.7,0.5,1.5,0.9,2.4,0.9H248c1,0,1.9-0.3,2.4-0.9c0.5-0.5,1-1.4,1-2.2s-0.3-1.7-1-2.2
						c-0.7-0.7-1.5-1-2.4-0.9h-27.5c-4,0-7.6-1.4-10.5-4c-2.9-2.6-4.3-5.8-4.3-9.5s1.4-6.7,4.3-9.3c2.9-2.6,6.4-4,10.3-4.1V28.5
						C220.1,28.5,220.3,28.5,220.3,28.5z"/>
					<path class="st0" d="M313.3,28.5c4.6,0,8.6,1.5,11.9,4.5s5,6.5,5,10.8c0,4.1-1.5,7.7-5,10.8c-3.3,2.9-7.2,4.5-11.9,4.5h-29.8
						v13.4h-12.9v-44H313.3z M283.6,48.5h28.7c1.5,0,2.8-0.5,3.6-1.2c1-0.9,1.4-2.1,1.4-3.3c0-1.4-0.5-2.6-1.4-3.3
						c-1-0.9-2.2-1.4-3.6-1.2h-28.7V48.5z"/>
					<path class="st0" d="M349.6,28.5v43.9h-12.9V28.5H349.6z"/>
					<path class="st0" d="M398.7,28.5c4.3,0,8.1,1.4,11,4.1c3.1,2.8,4.6,6,4.6,10c0,3.4-1.2,6.4-3.6,9.1c-2.4,2.6-5.5,4.1-9.1,4.8
						l13.9,15.8h-15.1l-12.9-15.5h-18.4v15.5h-12.9V28.5H398.7z M369.1,46.3c16.2,0,25.6,0,28.6,0c1.2,0,2.2-0.3,2.9-1
						c0.7-0.7,1-1.5,1-2.6s-0.3-1.9-1-2.6c-0.7-0.7-1.5-1-2.9-0.9h-28.6V46.3z"/>
					<path class="st0" d="M476.3,28.5v10.7h-40.9V45h35.6v10.5h-35.6v6.2h40.9v10.7h-54V28.5H476.3z"/>
				</g>
				<g>
					<path class="st0" d="M324.7,77v1.4h-2.8v8.9h-1.7v-8.9h-2.8V77H324.7z"/>
					<path class="st0" d="M334,83.9h-6.2c0,0.7,0.3,1.2,0.7,1.5c0.5,0.3,1,0.5,1.5,0.5c0.9,0,1.5-0.3,1.9-1.2h1.9
						c-0.2,0.7-0.7,1.4-1.4,1.9s-1.5,0.7-2.4,0.7s-1.5-0.2-2.1-0.5c-0.7-0.3-1-0.9-1.5-1.5c-0.3-0.7-0.5-1.4-0.5-2.2
						s0.2-1.5,0.5-2.2c0.3-0.7,0.9-1.2,1.4-1.5c0.5-0.3,1.4-0.5,2.1-0.5s1.5,0.2,2.1,0.5c0.7,0.3,1,0.9,1.4,1.4
						c0.3,0.7,0.5,1.4,0.5,2.1C334,83.4,334,83.6,334,83.9z M332.3,82.6c0-0.7-0.2-1.2-0.7-1.5s-1-0.5-1.5-0.5c-0.5,0-1,0.2-1.5,0.5
						c-0.3,0.3-0.7,0.9-0.7,1.5H332.3z"/>
					<path class="st0" d="M335.7,81c0.3-0.7,0.9-1.2,1.4-1.5c0.5-0.3,1.4-0.5,2.1-0.5c1,0,1.9,0.2,2.4,0.7c0.5,0.5,1,1.2,1.4,2.1
						H341c-0.2-0.3-0.3-0.7-0.7-0.9c-0.3-0.2-0.7-0.3-1.2-0.3c-0.7,0-1.2,0.2-1.7,0.7c-0.5,0.5-0.7,1.2-0.7,2.1
						c0,0.9,0.2,1.5,0.7,2.1c0.3,0.5,1,0.7,1.7,0.7c1,0,1.5-0.5,1.9-1.4h1.9c-0.2,0.9-0.7,1.5-1.4,2.1c-0.7,0.5-1.5,0.7-2.4,0.7
						c-0.9,0-1.5-0.2-2.1-0.5c-0.7-0.3-1-0.9-1.4-1.5s-0.5-1.4-0.5-2.2C335.2,82.4,335.4,81.7,335.7,81z"/>
					<path class="st0" d="M350.5,79.5c0.5,0.3,0.9,0.7,1.2,1.2c0.3,0.5,0.5,1.2,0.5,1.9v4.8h-1.7v-4.6c0-0.7-0.2-1.4-0.5-1.7
						c-0.3-0.3-0.9-0.5-1.5-0.5c-0.7,0-1.2,0.2-1.5,0.5c-0.3,0.3-0.5,1-0.5,1.7v4.6h-1.7v-11h1.7v3.8c0.3-0.3,0.7-0.7,1-0.9
						c0.3-0.2,0.9-0.3,1.5-0.3C349.5,78.9,350,79.1,350.5,79.5z"/>
					<path class="st0" d="M360.1,79.5c0.5,0.3,0.9,0.7,1.2,1.2c0.3,0.5,0.5,1.2,0.5,1.9v4.8h-1.7v-4.6c0-0.7-0.2-1.4-0.5-1.7
						c-0.3-0.3-0.9-0.5-1.5-0.5c-0.7,0-1.2,0.2-1.5,0.5c-0.3,0.3-0.5,1-0.5,1.7v4.6h-1.7v-8.3h1.7V80c0.3-0.3,0.7-0.5,1-0.9
						s0.9-0.3,1.4-0.3C359.1,78.9,359.6,79.1,360.1,79.5z"/>
					<path class="st0" d="M365.5,87c-0.7-0.3-1-0.9-1.5-1.5c-0.3-0.7-0.5-1.4-0.5-2.2s0.2-1.5,0.5-2.2s0.9-1.2,1.5-1.5
						s1.4-0.5,2.1-0.5c0.7,0,1.5,0.2,2.1,0.5c0.7,0.3,1.2,0.9,1.5,1.5c0.3,0.7,0.5,1.4,0.5,2.2s-0.2,1.5-0.5,2.2
						c-0.3,0.7-0.9,1.2-1.5,1.5c-0.7,0.3-1.4,0.5-2.2,0.5C366.8,87.5,366,87.4,365.5,87z M368.7,85.6c0.3-0.2,0.7-0.5,0.9-0.9
						s0.3-0.9,0.3-1.5c0-0.7-0.2-1-0.3-1.5c-0.2-0.3-0.5-0.7-0.9-0.9c-0.3-0.2-0.9-0.3-1.2-0.3c-0.3,0-0.9,0.2-1.2,0.3
						c-0.3,0.2-0.7,0.5-0.9,0.9c-0.2,0.3-0.3,0.9-0.3,1.5c0,0.9,0.2,1.5,0.7,2.1c0.5,0.5,1,0.7,1.7,0.7
						C368,86,368.4,85.8,368.7,85.6z"/>
					<path class="st0" d="M375.3,76.4v11h-1.7v-11H375.3z"/>
					<path class="st0" d="M378.9,87c-0.7-0.3-1-0.9-1.5-1.5c-0.3-0.7-0.5-1.4-0.5-2.2s0.2-1.5,0.5-2.2c0.3-0.7,0.9-1.2,1.5-1.5
						c0.7-0.3,1.4-0.5,2.1-0.5c0.7,0,1.5,0.2,2.1,0.5c0.7,0.3,1.2,0.9,1.5,1.5s0.5,1.4,0.5,2.2s-0.2,1.5-0.5,2.2
						c-0.3,0.7-0.9,1.2-1.5,1.5s-1.4,0.5-2.2,0.5C380.3,87.5,379.6,87.4,378.9,87z M382.1,85.6c0.3-0.2,0.7-0.5,0.9-0.9
						s0.3-0.9,0.3-1.5c0-0.7-0.2-1-0.3-1.5c-0.2-0.3-0.5-0.7-0.9-0.9c-0.3-0.2-0.9-0.3-1.2-0.3s-0.9,0.2-1.2,0.3
						c-0.3,0.2-0.7,0.5-0.9,0.9c-0.2,0.3-0.3,0.9-0.3,1.5c0,0.9,0.2,1.5,0.7,2.1c0.5,0.5,1,0.7,1.7,0.7
						C381.5,86,381.8,85.8,382.1,85.6z"/>
					<path class="st0" d="M392,79.5c0.5,0.3,0.9,0.5,1.2,0.9v-1.2h1.7v8.4c0,0.7-0.2,1.4-0.5,2.1c-0.3,0.5-0.7,1-1.4,1.4
						c-0.7,0.3-1.4,0.5-2.2,0.5c-1,0-2.1-0.3-2.8-0.9s-1.2-1.2-1.2-2.1h1.7c0.2,0.5,0.3,0.9,0.9,1c0.5,0.3,0.9,0.3,1.5,0.3
						c0.7,0,1.2-0.2,1.7-0.7c0.5-0.5,0.7-1,0.7-1.9V86c-0.3,0.3-0.7,0.7-1.2,1c-0.5,0.3-1,0.3-1.7,0.3c-0.7,0-1.4-0.2-1.9-0.5
						c-0.5-0.3-1-0.9-1.4-1.5c-0.3-0.7-0.5-1.4-0.5-2.2s0.2-1.5,0.5-2.2c0.3-0.7,0.9-1.2,1.4-1.5c0.5-0.3,1.2-0.5,1.9-0.5
						C390.9,78.9,391.4,79.1,392,79.5z M392.8,81.7c-0.2-0.3-0.5-0.7-0.9-0.9c-0.3-0.2-0.9-0.3-1.2-0.3s-0.9,0.2-1.2,0.3
						c-0.3,0.2-0.7,0.5-0.9,0.9c-0.2,0.3-0.3,0.9-0.3,1.4s0.2,1,0.3,1.5c0.2,0.5,0.5,0.7,0.9,1c0.3,0.2,0.9,0.3,1.2,0.3
						s0.9-0.2,1.2-0.3c0.3-0.2,0.7-0.5,0.9-1c0.2-0.5,0.3-0.9,0.3-1.5S393,82.2,392.8,81.7z"/>
					<path class="st0" d="M404.5,79.1l-5,12h-1.7l1.7-4l-3.3-8.1h1.9l2.2,6.2l2.4-6.2H404.5z"/>
					<path class="st0" d="M411.2,87c-0.5-0.2-1-0.5-1.4-1c-0.3-0.5-0.5-1-0.5-1.5h1.9c0,0.5,0.2,0.9,0.5,1s0.7,0.5,1.4,0.5
						c0.5,0,1-0.2,1.4-0.5s0.5-0.7,0.5-1c0-0.3-0.2-0.7-0.3-0.9c-0.2-0.2-0.5-0.3-0.7-0.5c-0.3-0.2-0.7-0.2-1.2-0.3
						c-0.7-0.2-1.2-0.3-1.7-0.5c-0.5-0.2-0.9-0.5-1-0.9s-0.5-0.9-0.5-1.5c0-0.5,0.2-1.2,0.5-1.5s0.7-0.9,1.2-1
						c0.5-0.2,1.2-0.3,1.9-0.3c1,0,1.9,0.3,2.4,0.7c0.7,0.5,1,1.2,1,2.1h-1.9c0-0.3-0.2-0.7-0.5-1c-0.3-0.3-0.7-0.3-1.4-0.3
						c-0.5,0-0.9,0.2-1.2,0.3s-0.5,0.5-0.5,1c0,0.3,0.2,0.5,0.3,0.9c0.2,0.3,0.5,0.3,0.7,0.5c0.2,0.2,0.7,0.2,1.2,0.3
						c0.7,0.2,1.2,0.3,1.7,0.5s0.9,0.5,1,0.9s0.5,0.9,0.5,1.5c0,0.5-0.2,1-0.5,1.5c-0.3,0.5-0.7,0.9-1.2,1.2s-1.2,0.5-1.9,0.5
						C412.3,87.5,411.7,87.4,411.2,87z"/>
					<path class="st0" d="M420,87c-0.7-0.3-1-0.9-1.5-1.5c-0.3-0.7-0.5-1.4-0.5-2.2s0.2-1.5,0.5-2.2s0.9-1.2,1.5-1.5
						c0.7-0.3,1.4-0.5,2.1-0.5c0.7,0,1.5,0.2,2.1,0.5c0.7,0.3,1.2,0.9,1.5,1.5c0.3,0.7,0.5,1.4,0.5,2.2s-0.2,1.5-0.5,2.2
						c-0.3,0.7-0.9,1.2-1.5,1.5c-0.7,0.3-1.4,0.5-2.2,0.5C421.4,87.5,420.7,87.4,420,87z M423.4,85.6c0.3-0.2,0.7-0.5,0.9-0.9
						s0.3-0.9,0.3-1.5c0-0.7-0.2-1-0.3-1.5c-0.2-0.3-0.5-0.7-0.9-0.9c-0.3-0.2-0.9-0.3-1.2-0.3c-0.3,0-0.9,0.2-1.2,0.3
						c-0.3,0.2-0.7,0.5-0.9,0.9c-0.2,0.3-0.3,0.9-0.3,1.5c0,0.9,0.2,1.5,0.7,2.1c0.5,0.5,1,0.7,1.7,0.7
						C422.6,86,423.1,85.8,423.4,85.6z"/>
					<path class="st0" d="M429.8,76.4v11h-1.7v-11H429.8z"/>
					<path class="st0" d="M439.4,79.1v8.3h-1.7v-1c-0.3,0.3-0.7,0.5-1,0.9c-0.5,0.2-0.9,0.3-1.4,0.3c-0.7,0-1.2-0.2-1.7-0.3
						c-0.5-0.3-0.9-0.7-1.2-1.2s-0.5-1.2-0.5-1.9v-4.8h1.7v4.6c0,0.7,0.2,1.4,0.5,1.7c0.3,0.3,0.9,0.5,1.5,0.5
						c0.7,0,1.2-0.2,1.5-0.5c0.3-0.3,0.5-1,0.5-1.7v-4.6L439.4,79.1L439.4,79.1z"/>
					<path class="st0" d="M443.7,80.5V85c0,0.3,0,0.5,0.2,0.7c0.2,0.2,0.3,0.2,0.7,0.2h1v1.4h-1.4c-0.9,0-1.4-0.2-1.7-0.5
						c-0.3-0.3-0.7-0.9-0.7-1.7v-4.5h-1v-1.4h1V77h1.7v2.1h2.1v1.4H443.7L443.7,80.5z"/>
					<path class="st0" d="M447.4,77.7c-0.2-0.2-0.3-0.5-0.3-0.9c0-0.3,0.2-0.5,0.3-0.9s0.5-0.3,0.9-0.3c0.3,0,0.5,0.2,0.7,0.3
						c0.2,0.2,0.3,0.5,0.3,0.9c0,0.3-0.2,0.5-0.3,0.9c-0.2,0.3-0.5,0.3-0.7,0.3C447.9,78.1,447.5,77.9,447.4,77.7z M449.1,79.1v8.3
						h-1.7v-8.3H449.1z"/>
					<path class="st0" d="M452.7,87c-0.7-0.3-1-0.9-1.5-1.5c-0.3-0.7-0.5-1.4-0.5-2.2s0.2-1.5,0.5-2.2c0.3-0.7,0.9-1.2,1.5-1.5
						c0.7-0.3,1.4-0.5,2.1-0.5s1.5,0.2,2.1,0.5c0.5,0.3,1.2,0.9,1.5,1.5c0.3,0.7,0.5,1.4,0.5,2.2s-0.2,1.5-0.5,2.2
						c-0.3,0.7-0.9,1.2-1.5,1.5c-0.7,0.3-1.4,0.5-2.2,0.5C454.1,87.5,453.4,87.4,452.7,87z M456,85.6c0.3-0.2,0.7-0.5,0.9-0.9
						s0.3-0.9,0.3-1.5c0-0.7-0.2-1-0.3-1.5c-0.2-0.5-0.5-0.7-0.9-0.9c-0.3-0.2-0.9-0.3-1.2-0.3c-0.3,0-0.9,0.2-1.2,0.3
						c-0.3,0.2-0.7,0.5-0.9,0.9c-0.2,0.3-0.3,0.9-0.3,1.5c0,0.9,0.2,1.5,0.7,2.1c0.5,0.5,1,0.7,1.7,0.7
						C455.3,86,455.6,85.8,456,85.6z"/>
					<path class="st0" d="M466.6,79.5c0.5,0.3,0.9,0.7,1.2,1.2c0.3,0.5,0.5,1.2,0.5,1.9v4.8h-1.7v-4.6c0-0.7-0.2-1.4-0.5-1.7
						c-0.3-0.3-0.9-0.5-1.5-0.5c-0.7,0-1.2,0.2-1.5,0.5s-0.5,1-0.5,1.7v4.6h-1.7v-8.3h1.7V80c0.3-0.3,0.7-0.5,1-0.9
						c0.3-0.3,0.9-0.3,1.4-0.3C465.6,78.9,466.1,79.1,466.6,79.5z"/>
					<path class="st0" d="M471.6,87.2c-0.5-0.2-0.9-0.5-1.2-0.9c-0.3-0.3-0.5-0.9-0.5-1.4h1.7c0,0.3,0.2,0.7,0.5,0.9
						c0.3,0.2,0.7,0.3,1.2,0.3c0.5,0,0.9,0,1-0.3c0.2-0.2,0.3-0.3,0.3-0.7s-0.2-0.5-0.5-0.7c-0.3-0.2-0.7-0.3-1.4-0.5
						c-0.7-0.2-1-0.3-1.5-0.5c-0.3-0.2-0.7-0.3-1-0.7s-0.5-0.7-0.5-1.4c0-0.5,0.2-0.9,0.3-1.2c0.2-0.3,0.7-0.7,1-0.9
						c0.3-0.2,1-0.3,1.7-0.3c0.9,0,1.7,0.2,2.2,0.7c0.5,0.5,0.9,1.2,0.9,1.9h-1.7c0-0.3-0.2-0.7-0.5-0.9c-0.3-0.2-0.7-0.3-1-0.3
						c-0.3,0-0.9,0-1,0.3c-0.2,0.2-0.3,0.3-0.3,0.7c0,0.2,0,0.3,0.2,0.5c0.2,0.2,0.3,0.3,0.5,0.3s0.5,0.2,1,0.3
						c0.7,0.2,1,0.3,1.5,0.5c0.3,0.2,0.7,0.3,1,0.7c0.3,0.3,0.5,0.7,0.5,1.2c0,0.5-0.2,0.9-0.3,1.2s-0.7,0.7-1,0.9
						c-0.5,0.2-1,0.3-1.7,0.3C472.8,87.5,472.1,87.4,471.6,87.2z"/>
				</g>
			</g>
			<g>
				<path class="st1" d="M93.1,79.6c-7.7,7.1-23.1,11.7-40.8,11.7c-25.5,0-46.1-9.8-46.1-22c0-5.5,4.3-10.7,11.4-14.5
					C23.4,62.6,33.4,70.3,46,76C65.4,84.8,84.3,85.8,93.1,79.6z"/>
				<path class="st1" d="M98.5,69.5c0,1.4-0.2,2.6-0.7,3.8v0.2l0,0c0-0.2,0.2-0.3,0.2-0.5c0.7-3.3,0-6.9-1.9-10.7
					c1.4,2.1,2.2,4.1,2.4,6.5C98.5,69,98.5,69.1,98.5,69.5z"/>
				<path class="st1" d="M94,78.9c1.7-1.7,2.9-3.6,3.8-5.5c-0.5,1.7-1.5,3.4-2.8,4.6C94.7,78.4,94.3,78.6,94,78.9z"/>
				<path class="st1" d="M97.9,72.9c0.7-3.3,0-6.9-1.9-10.7C91.6,53,79.7,42.8,64.2,35.9c-13.8-6.2-27.5-8.6-37.3-7.1
					c-1.5-6.7-0.7-12.4,2.9-15.8c8.6-8.6,30.1-1,48.2,17C91.2,43.3,98.8,58.5,98.5,69C98.5,70.3,98.3,71.5,97.9,72.9z"/>
				<path class="st1" d="M94,78.9c-0.3,0.3-0.5,0.5-0.9,0.9c-8.8,6.2-27.9,5.2-47-3.6c-12.6-5.8-22.7-13.6-28.6-21.3
					c5-2.8,11.4-5,18.8-6.2c2.9,4.1,6.4,8.3,10.3,12.4C64.2,78.4,84.9,86.2,94,78.9z"/>
				<path class="st1" d="M96,62.3c-6.2-8.8-23.4-15-43.7-15c-5.7,0-11,0.5-16,1.4c-4.8-6.9-8.1-13.9-9.5-20
					c9.8-1.4,23.6,0.9,37.3,7.1C79.7,43,91.6,53,96,62.3z"/>
				<path class="st1" d="M36.3,48.7c-7.4,1.4-13.8,3.4-18.8,6.2C12.8,48.3,10.9,42,13.1,37c2.1-4.5,7.1-7.2,13.8-8.3
					C28.3,34.9,31.5,41.8,36.3,48.7z"/>
				<path class="st1" d="M97.9,72.9c0,0.2,0,0.3-0.2,0.5c-0.7,1.9-2.1,3.8-3.8,5.5C84.9,86.2,64,78.4,46.7,61
					c-4-4-7.6-8.3-10.3-12.4c5-0.9,10.3-1.4,16-1.4c20.3,0,37.5,6.2,43.7,15C97.9,66,98.6,69.6,97.9,72.9z"/>
				<path class="st1" d="M97.9,72.9c0,0.2,0,0.2,0,0.3v0.2c-0.2,0.5-0.3,1-0.5,1.5c-0.9,1.9-2.2,3.4-4,4.8c0.3-0.2,0.5-0.5,0.9-0.9
					c1.7-1.7,2.9-3.6,3.8-5.5C97.8,73.3,97.8,73.1,97.9,72.9z"/>
			</g>
		</g>
		<path class="st0" d="M483.7,8.4c-3.8,0-6.9,3.1-6.9,6.9s3.1,6.9,6.9,6.9c3.8,0,6.9-3.1,6.9-6.9S487.4,8.4,483.7,8.4z M483.7,20.3
			c-2.8,0-5-2.2-5-5s2.2-5,5-5s5,2.2,5,5S486.2,20.3,483.7,20.3z M486.1,14.4c0-1.4-1-2.2-2.6-2.2h-2.4v6.2h1.4v-1.7h1h0.2l1.2,1.7
			h1.7l-1.5-2.1C485.7,15.8,486.1,15.1,486.1,14.4z M483.5,15.3h-0.9v-1.9h1c1.2,0,1.2,0.7,1.2,0.9
			C484.7,14.6,484.7,15.3,483.5,15.3z"/>
	</g>
</g>
</svg>
